HIERARCHY
ROOT SpineBase
{
  OFFSET 0.000000 0.000000 0.000000
  CHANNELS 6 Xposition Yposition Zposition Zrotation Xrotation Yrotation
  JOINT SpineMid
  {
    OFFSET -0.000000 29.355107 0.000000
    CHANNELS 3 Zrotation Xrotation Yrotation
    JOINT SpineShoulder
    {
      OFFSET 0.092428 21.841700 -0.668054
      CHANNELS 3 Zrotation Xrotation Yrotation
      JOINT Neck
      {
        OFFSET 0.068421 7.243755 -0.535686
        CHANNELS 3 Zrotation Xrotation Yrotation
        JOINT Head
        {
          OFFSET -2.291523 13.967365 -0.204999
          CHANNELS 3 Zrotation Xrotation Yrotation
          End Site
          {
            OFFSET 0 0 0
          }
        }
      }
      JOINT ShoulderLeft
      {
        OFFSET -16.288020 -3.634423 4.631043
        CHANNELS 3 Zrotation Xrotation Yrotation
        JOINT ElbowLeft
        {
          OFFSET -2.426345 -28.426085 3.996816
          CHANNELS 3 Zrotation Xrotation Yrotation
          JOINT WristLeft
          {
            OFFSET 0.771046 -22.031013 -5.930429
            CHANNELS 3 Zrotation Xrotation Yrotation
            JOINT HandLeft
            {
              OFFSET 0.996997 -0.933225 -0.849995
              CHANNELS 3 Zrotation Xrotation Yrotation
              JOINT HandTipLeft
              {
                OFFSET 0.979180 -7.201638 -1.352492
                CHANNELS 3 Zrotation Xrotation Yrotation
                End Site
                {
                  OFFSET 0 0 0
                }
              }
              JOINT ThumbLeft
              {
                OFFSET 2.891753 0.817422 -4.298452
                CHANNELS 3 Zrotation Xrotation Yrotation
                End Site
                {
                  OFFSET 0 0 0
                }
              }
            }
          }
        }
      }
      JOINT ShoulderRight
      {
        OFFSET 14.662600 -2.729307 -6.304056
        CHANNELS 3 Zrotation Xrotation Yrotation
        JOINT ElbowRight
        {
          OFFSET 7.835111 -26.505792 1.442231
          CHANNELS 3 Zrotation Xrotation Yrotation
          JOINT WristRight
          {
            OFFSET 0.586655 -22.003012 -6.212637
            CHANNELS 3 Zrotation Xrotation Yrotation
            JOINT HandRight
            {
              OFFSET -1.428905 -2.394291 0.864627
              CHANNELS 3 Zrotation Xrotation Yrotation
              JOINT HandTipRight
              {
                OFFSET 1.089309 -6.609209 -1.073702
                CHANNELS 3 Zrotation Xrotation Yrotation
                End Site
                {
                  OFFSET 0 0 0
                }
              }
              JOINT ThumbRight
              {
                OFFSET -3.232490 0.709612 -1.559312
                CHANNELS 3 Zrotation Xrotation Yrotation
                End Site
                {
                  OFFSET 0 0 0
                }
              }
            }
          }
        }
      }
    }
  }
  JOINT HipLeft
  {
    OFFSET -6.659600 0.510350 -1.529568
    CHANNELS 3 Zrotation Xrotation Yrotation
    JOINT KneeLeft
    {
      OFFSET 1.337503 -27.466074 6.464309
      CHANNELS 3 Zrotation Xrotation Yrotation
      JOINT AnkleLeft
      {
        OFFSET 1.350355 -31.802210 8.213895
        CHANNELS 3 Zrotation Xrotation Yrotation
        JOINT FootLeft
        {
          OFFSET -2.851498 -3.509678 -12.740924
          CHANNELS 3 Zrotation Xrotation Yrotation
          End Site
          {
            OFFSET 0 0 0
          }
        }
      }
    }
  }
  JOINT HipRight
  {
    OFFSET 7.270185 1.346759 -5.219503
    CHANNELS 3 Zrotation Xrotation Yrotation
    JOINT KneeRight
    {
      OFFSET 4.898521 -27.887490 1.278519
      CHANNELS 3 Zrotation Xrotation Yrotation
      JOINT AnkleRight
      {
        OFFSET 1.796844 -32.998467 5.896288
        CHANNELS 3 Zrotation Xrotation Yrotation
        JOINT FootRight
        {
          OFFSET -1.015734 -7.889054 -5.457785
          CHANNELS 3 Zrotation Xrotation Yrotation
          End Site
          {
            OFFSET 0 0 0
          }
        }
      }
    }
  }
}
MOTION
Frames: 9
Frame Time: 0.033333
-31.214769 68.369062 346.761379 0.000000 0.000000 14.836624 -0.000000 -0.000000 -14.836624 -0.000000 0.000000 0.000000 -0.000000 0.000000 0.000000 0.000000 0.000000 0.000000 -0.000000 0.000000 0.000000 -0.000000 0.000000 0.000000 -0.000000 0.000000 0.000000 -0.000000 0.000000 0.000000 0.000000 0.000000 0.000000 0.000000 0.000000 0.000000 -0.000000 0.000000 0.000000 -0.000000 0.000000 0.000000 -0.000000 0.000000 0.000000 -0.000000 0.000000 0.000000 0.000000 0.000000 0.000000 0.000000 0.000000 0.000000 -0.000000 -0.000000 -14.836624 -0.000000 0.000000 0.000000 -0.000000 0.000000 0.000000 0.000000 0.000000 0.000000 -0.000000 -0.000000 -14.836624 -0.000000 0.000000 0.000000 -0.000000 0.000000 0.000000 0.000000 0.000000 0.000000
-30.977148 68.372535 346.800144 -0.386684 -0.557842 14.825906 -0.179263 -0.266846 -14.840109 0.007432 -0.088101 -0.015862 0.483853 0.950004 0.022812 0.000000 0.000000 0.000000 0.483853 0.950004 0.022812 -1.258593 -0.250915 0.327589 0.051624 -1.292546 -0.913889 1.161083 0.016271 0.351470 0.000000 0.000000 0.000000 0.000000 0.000000 0.000000 0.483853 0.950004 0.022812 -1.370698 -1.062026 0.347037 -0.112603 5.065540 -3.242439 0.371470 -6.792261 2.661309 0.000000 0.000000 0.000000 0.000000 0.000000 0.000000 0.075056 1.352315 -14.941025 0.661758 -0.767291 0.122589 -0.000000 0.000000 0.000000 0.000000 0.000000 0.000000 0.516566 0.440309 -14.829773 -0.000000 0.000000 0.000000 -0.576208 1.989700 0.150530 0.000000 0.000000 0.000000
-30.774674 68.374661 346.825516 -0.733791 -1.059109 14.847816 -0.318902 -0.481868 -14.879021 0.017397 -0.155122 -0.030116 2.319595 1.280636 -0.059785 0.000000 0.000000 0.000000 0.899778 1.762518 0.036095 -2.323363 -0.459346 0.601180 0.061889 -2.116537 -1.397226 2.077532 -0.207529 0.343827 0.000000 0.000000 0.000000 0.000000 0.000000 0.000000 0.446232 0.552851 -0.337185 -2.081926 -0.814164 1.054499 0.203899 10.074710 -6.238129 0.909027 -13.098654 5.192046 0.000000 0.000000 0.000000 0.000000 0.000000 0.000000 0.186790 2.581542 -15.052451 1.614428 -0.755755 0.371189 -0.398573 -0.721220 -0.135876 0.000000 0.000000 0.000000 0.980784 0.835602 -14.861750 -1.038543 0.203314 -0.172802 -0.161802 3.482068 0.550424 0.000000 0.000000 0.000000
-30.607350 68.375442 346.837494 -1.041266 -1.503673 14.905579 -0.419766 -0.645432 -14.954802 0.029528 -0.202073 -0.042472 3.307920 1.746902 -0.115531 0.000000 0.000000 0.000000 1.248727 2.438962 0.042797 -3.193245 -0.622105 0.822675 0.029528 -2.511355 -1.441409 2.762044 -0.702983 -0.006127 0.000000 0.000000 0.000000 0.000000 0.000000 0.000000 0.619536 0.817022 -0.453377 -2.870555 -1.240630 1.440859 0.986370 14.713881 -8.909423 1.359990 -18.658559 7.460762 0.000000 0.000000 0.000000 0.000000 0.000000 0.000000 0.342074 3.677794 -15.176272 2.283143 -0.967542 0.545138 -0.758147 -1.606381 0.630893 0.000000 0.000000 0.000000 2.260377 0.809529 -14.930376 -2.377509 0.397118 -0.254610 -0.421448 4.838092 0.919108 0.000000 0.000000 0.000000
-30.475173 68.374875 346.836078 -1.309084 -1.891503 15.001912 -0.482561 -0.758091 -15.068671 0.043520 -0.229838 -0.052703 4.183654 2.098680 -0.177518 0.000000 0.000000 0.000000 1.531525 2.980818 0.045346 -3.867914 -0.736744 0.993789 -0.052823 -2.494720 -1.026838 3.216662 -1.500875 -0.702295 0.000000 0.000000 0.000000 0.000000 0.000000 0.000000 0.759745 1.069378 -0.534952 -3.490872 -1.663986 1.730961 2.188033 18.726169 -11.203181 1.484653 -23.275716 9.318314 0.000000 0.000000 0.000000 0.000000 0.000000 0.000000 0.546340 4.632482 -15.317394 2.850848 -1.059990 0.705164 -1.056568 -2.207009 0.820991 0.000000 0.000000 0.000000 2.791220 0.978079 -15.055807 -2.907277 0.502889 -0.301552 -0.799055 5.947354 1.347698 0.000000 0.000000 0.000000
-30.378146 68.372963 346.821268 -1.537251 -2.222645 15.139000 -0.507776 -0.820524 -15.221587 0.059135 -0.239133 -0.060635 4.947847 2.337349 -0.238982 0.000000 0.000000 0.000000 1.748866 3.389480 0.045674 -4.347451 -0.801467 1.115909 -0.198358 -2.062166 -0.120526 3.429552 -2.636240 -1.770716 0.000000 0.000000 0.000000 0.000000 0.000000 0.000000 0.867167 1.309348 -0.581758 -3.944232 -2.077092 1.924354 3.696136 21.957675 -13.083925 1.102944 -26.833716 10.643668 0.000000 0.000000 0.000000 0.000000 0.000000 0.000000 0.803288 5.438422 -15.479987 3.313549 -1.027530 0.847156 -1.379243 -2.840962 0.999356 0.000000 0.000000 0.000000 3.210243 1.095145 -15.227218 -3.307764 0.595078 -0.330510 -1.294202 6.815665 1.834795 0.000000 0.000000 0.000000
-30.304031 68.373238 346.859870 -1.731886 -2.605513 15.345528 -0.486514 -0.827004 -15.442335 0.081914 -0.202688 -0.065165 5.648023 2.559487 -0.300138 0.000000 0.000000 0.000000 1.504430 2.986883 0.075196 -4.378607 0.020081 1.283000 -0.221665 -2.000517 0.345620 3.188681 -3.581922 -2.369157 0.000000 0.000000 0.000000 0.000000 0.000000 0.000000 1.157857 1.690645 -0.567855 -4.590623 -2.756593 2.006674 6.381006 24.323070 -14.406274 -0.371120 -28.352878 11.075747 0.000000 0.000000 0.000000 0.000000 0.000000 0.000000 1.078256 6.415311 -15.710399 3.999055 -0.791561 1.070480 -1.958796 -3.810208 1.213530 0.000000 0.000000 0.000000 3.602019 1.332934 -15.464125 -3.656991 0.588636 -0.370342 -2.417239 8.767029 2.654461 0.000000 0.000000 0.000000
-30.258906 68.362045 346.825391 -1.859917 -2.843884 15.710788 -0.426811 -0.776891 -15.816129 0.104413 -0.162409 -0.066593 6.105773 2.614529 -0.337414 0.000000 0.000000 0.000000 1.465758 3.172754 0.063304 -4.394362 0.106959 1.336356 0.251638 0.919406 3.523636 2.266979 -6.327939 -5.343131 0.000000 0.000000 0.000000 0.000000 0.000000 0.000000 1.333304 1.953306 -0.528430 -5.025106 -3.306117 2.010927 10.083417 26.814034 -16.103421 -4.497850 -31.188377 10.608287 0.000000 0.000000 0.000000 0.000000 0.000000 0.000000 1.329815 6.993568 -16.087381 4.509028 -0.369556 1.247040 -3.349387 -2.822219 2.858106 0.000000 0.000000 0.000000 3.700469 1.364068 -15.873695 -3.669300 0.656028 -0.349716 -3.427930 9.559269 3.386125 0.000000 0.000000 0.000000
-30.295217 68.358228 346.706489 -2.000101 -2.916764 16.046488 -0.325214 -0.678561 -16.158523 0.127878 -0.121463 -0.068341 6.515608 2.428847 -0.353603 0.000000 0.000000 0.000000 1.990038 3.784370 0.045791 -4.636017 -0.409628 1.220570 5.999981 11.943033 9.012297 -8.807049 -18.234595 -12.495838 0.000000 0.000000 0.000000 0.000000 0.000000 0.000000 1.241219 2.146795 -0.440712 -4.929529 -3.709571 1.906586 11.112836 28.101927 -17.070167 -5.537052 -32.725494 10.786026 0.000000 0.000000 0.000000 0.000000 0.000000 0.000000 1.857850 7.093316 -16.381372 4.421305 0.063504 1.246568 -3.413352 -3.852800 2.549976 0.000000 0.000000 0.000000 3.663844 1.161376 -16.261327 -3.495836 0.768725 -0.289369 -2.873515 5.421046 3.392552 0.000000 0.000000 0.000000
